<svg aria-hidden="true" style="position: absolute; width: 0; height: 0; overflow: hidden;" version="1.1" xmlns="http://www.w3.org/2000/svg" xmlns:xlink="http://www.w3.org/1999/xlink">
<defs>
<symbol id="close" viewBox="8 8 16 16" stroke-linejoin="round" stroke-linecap="round"  stroke-width="2.7">
<path d="M24 8l-16 16"></path>
<path d="M8 8l16 16"></path>
</symbol>
<symbol id="del-x" viewBox="0 0 9 8" >
<path d="M11.7976 -1.57404C11.9309 -1.70311 12.0373 -1.85754 12.1105 -2.02829C12.1837 -2.19905 12.2223 -2.38273 12.224 -2.56861C12.2257 -2.75448 12.1905 -2.93884 12.1204 -3.11092C12.0503 -3.28299 11.9468 -3.43934 11.8158 -3.57085C11.6848 -3.70235 11.5291 -3.80637 11.3576 -3.87684C11.1861 -3.94731 11.0024 -3.98281 10.8171 -3.98129C10.6318 -3.97976 10.4486 -3.94123 10.2783 -3.86794C10.1081 -3.79466 9.95401 -3.68808 9.82522 -3.55444L4.23196 2.05452L-1.35944 -3.55444C-1.4872 -3.69198 -1.64126 -3.8023 -1.81244 -3.87881C-1.98363 -3.95532 -2.16842 -3.99647 -2.3558 -3.99978C-2.54318 -4.0031 -2.7293 -3.96852 -2.90307 -3.89811C-3.07683 -3.82771 -3.23468 -3.72291 -3.3672 -3.58998C-3.49972 -3.45704 -3.60418 -3.2987 -3.67437 -3.12439C-3.74456 -2.95007 -3.77903 -2.76336 -3.77572 -2.5754C-3.77242 -2.38743 -3.7314 -2.20206 -3.65513 -2.03034C-3.57886 -1.85862 -3.46888 -1.70407 -3.33178 -1.57591L2.2559 4.03492L-3.3355 9.64388C-3.582 9.90925 -3.7162 10.2603 -3.70982 10.6229C-3.70344 10.9856 -3.55698 11.3316 -3.3013 11.5881C-3.04562 11.8446 -2.70067 11.9915 -2.33914 11.9979C-1.9776 12.0043 -1.6277 11.8697 -1.36316 11.6224L4.23196 6.01346L9.82336 11.6243C10.0879 11.8716 10.4378 12.0062 10.7993 11.9998C11.1609 11.9934 11.5058 11.8465 11.7615 11.59C12.0172 11.3335 12.1636 10.9875 12.17 10.6248C12.1764 10.2621 12.0422 9.91112 11.7957 9.64574L6.20802 4.03492L11.7976 -1.57404Z"/>
</symbol>
<symbol id="star" viewBox="0 0 16 15">
<path d="M3.61163 14.9435C3.22563 15.1415 2.78763 14.7945 2.86563 14.3515L3.69563 9.6215L0.17263 6.2655C-0.15637 5.9515 0.01463 5.3775 0.45563 5.3155L5.35363 4.6195L7.53763 0.2925C7.73463 -0.0975 8.26763 -0.0975 8.46463 0.2925L10.6486 4.6195L15.5466 5.3155C15.9876 5.3775 16.1586 5.9515 15.8286 6.2655L12.3066 9.6215L13.1366 14.3515C13.2146 14.7945 12.7766 15.1415 12.3906 14.9435L7.99963 12.6875L3.61163 14.9435Z"/>
</symbol>
<symbol id="search-less" viewBox="0 0 20 20" stroke-width="1.8" stroke-linecap="round" stroke-linejoin="round">
    <path
        d="M9.16667 15.8333C12.8486 15.8333 15.8333 12.8486 15.8333 9.16667C15.8333 5.48477 12.8486 2.5 9.16667 2.5C5.48477 2.5 2.5 5.48477 2.5 9.16667C2.5 12.8486 5.48477 15.8333 9.16667 15.8333Z"
         />
    <path d="M17.5 17.5L13.875 13.875"/>
</symbol>
<symbol id="search" viewBox="0 0 24 24">
  <path d="M17.6134 15.5171C19.0658 13.5352 19.7163 11.0779 19.4348 8.63685C19.1533 6.19584 17.9605 3.95114 16.095 2.35182C14.2295 0.752509 11.829 -0.0834673 9.37362 0.0111424C6.91825 0.105752 4.58915 1.12397 2.85227 2.86209C1.1154 4.60021 0.098846 6.93004 0.00599324 9.38548C-0.0868595 11.8409 0.750834 14.2409 2.35148 16.1052C3.95213 17.9695 6.19769 19.1607 8.6389 19.4405C11.0801 19.7203 13.5369 19.068 15.5179 17.6141H15.5164C15.5614 17.6741 15.6094 17.7311 15.6634 17.7866L21.4384 23.5616C21.7196 23.8431 22.1012 24.0013 22.4991 24.0014C22.897 24.0016 23.2787 23.8436 23.5601 23.5624C23.8416 23.2811 23.9998 22.8996 23.9999 22.5017C24.0001 22.1038 23.8421 21.7221 23.5609 21.4406L17.7859 15.6656C17.7322 15.6113 17.6746 15.5627 17.6134 15.5171ZM18.0004 9.75113C18.0004 10.8345 17.787 11.9073 17.3724 12.9083C16.9578 13.9092 16.3501 14.8187 15.584 15.5848C14.8179 16.3508 13.9084 16.9585 12.9075 17.3731C11.9066 17.7877 10.8338 18.0011 9.75037 18.0011C8.66696 18.0011 7.59417 17.7877 6.59323 17.3731C5.5923 16.9585 4.68282 16.3508 3.91674 15.5848C3.15066 14.8187 2.54297 13.9092 2.12836 12.9083C1.71376 11.9073 1.50037 10.8345 1.50037 9.75113C1.50037 7.56309 2.36956 5.46467 3.91674 3.9175C5.46391 2.37032 7.56233 1.50113 9.75037 1.50113C11.9384 1.50113 14.0368 2.37032 15.584 3.9175C17.1312 5.46467 18.0004 7.56309 18.0004 9.75113Z"/></symbol>
<symbol id="favorite" viewBox="0 0 24 24">
  <path d="M11.9998 4.12207L10.9243 3.01657C8.39984 0.421573 3.77084 1.31707 2.09984 4.57957C1.31534 6.11407 1.13834 8.32957 2.57084 11.1571C3.95084 13.8796 6.82184 17.1406 11.9998 20.6926C17.1778 17.1406 20.0473 13.8796 21.4288 11.1571C22.8613 8.32807 22.6858 6.11407 21.8998 4.57957C20.2288 1.31707 15.5998 0.420073 13.0753 3.01507L11.9998 4.12207ZM11.9998 22.5001C-10.9997 7.30207 4.91834 -4.55993 11.7358 1.71457C11.8258 1.79707 11.9143 1.88257 11.9998 1.97107C12.0845 1.88265 12.1725 1.79759 12.2638 1.71607C19.0798 -4.56293 34.9993 7.30057 11.9998 22.5001Z"/></symbol>
<symbol id="cart" viewBox="0 0 24 24">
 <path d="M23.8042 6.6553C23.7354 6.5576 23.6442 6.47785 23.5381 6.42278C23.4321 6.36771 23.3144 6.33892 23.1949 6.33884H7.27762L6.07274 2.18384C5.60024 0.547719 4.47747 0.371094 4.01697 0.371094H0.804344C0.39257 0.371094 0.0595703 0.704469 0.0595703 1.11584C0.0595703 1.52722 0.392945 1.86057 0.80432 1.86057H4.01657C4.1182 1.86057 4.42832 1.86057 4.63984 2.59145L8.78472 17.8243C8.87472 18.1457 9.16759 18.3677 9.5017 18.3677H19.6259C19.9402 18.3677 20.2207 18.1708 20.3268 17.8749L23.8953 7.33555C23.9775 7.10717 23.9433 6.85292 23.8042 6.6553H23.8042ZM19.1018 16.8786H10.067L7.69623 7.82872H22.136L19.1018 16.8786ZM17.6247 19.8771C16.589 19.8771 15.7497 20.7163 15.7497 21.7521C15.7497 22.7878 16.589 23.6271 17.6247 23.6271C18.6605 23.6271 19.4997 22.7878 19.4997 21.7521C19.4997 20.7163 18.6605 19.8771 17.6247 19.8771ZM10.8747 19.8771C9.83898 19.8771 8.99973 20.7163 8.99973 21.7521C8.99973 22.7878 9.83898 23.6271 10.8747 23.6271C11.9105 23.6271 12.7497 22.7878 12.7497 21.7521C12.7497 20.7163 11.9105 19.8771 10.8747 19.8771Z"/>
</symbol>
<symbol id="chevron" viewBox="0 0 8 12">
 <path d="M7.41016 1.87134L2.83016 6.00234L7.41016 10.1333L6.00016 11.4023L0.000156403 6.00234L6.00016 0.602344L7.41016 1.87134Z"/>
</symbol>
<symbol id="chevronCategory" viewBox="0 0 8 12">
 <path d="M7.41016 1.41L2.83016 6L7.41016 10.59L6.00016 12L0.000156403 6L6.00016 0L7.41016 1.41Z"/>
</symbol>
<symbol id="chevronRound" viewBox="0 0 20 11">
<path fill-rule="evenodd" clip-rule="evenodd" d="M19.5311 10.5297C19.4615 10.5995 19.3787 10.6549 19.2876 10.6927C19.1965 10.7305 19.0988 10.75 19.0001 10.75C18.9015 10.75 18.8038 10.7305 18.7127 10.6927C18.6216 10.6549 18.5388 10.5995 18.4691 10.5297L10.0001 2.05916L1.53112 10.5297C1.46139 10.5994 1.37861 10.6547 1.2875 10.6924C1.19639 10.7302 1.09874 10.7496 1.00012 10.7496C0.901508 10.7496 0.803858 10.7302 0.712749 10.6924C0.621639 10.6547 0.538856 10.5994 0.469124 10.5297C0.399393 10.4599 0.344078 10.3771 0.306339 10.286C0.2686 10.1949 0.249178 10.0973 0.249178 9.99866C0.249178 9.90005 0.2686 9.8024 0.306339 9.71129C0.344078 9.62018 0.399393 9.53739 0.469124 9.46766L9.46912 0.46766C9.53879 0.397816 9.62156 0.342401 9.71267 0.304592C9.80379 0.266783 9.90147 0.24732 10.0001 0.24732C10.0988 0.24732 10.1965 0.266783 10.2876 0.304592C10.3787 0.342401 10.4615 0.397816 10.5311 0.46766L19.5311 9.46766C19.601 9.53733 19.6564 9.62009 19.6942 9.71121C19.732 9.80233 19.7515 9.90001 19.7515 9.99866C19.7515 10.0973 19.732 10.195 19.6942 10.2861C19.6564 10.3772 19.601 10.46 19.5311 10.5297Z" fill="black"/>
</symbol>
<symbol id="WhatsApp" viewBox="0 0 20 20">
<path d="M10.001 0C15.524 0 20.001 4.477 20.001 10C20.001 15.523 15.524 20 10.001 20C8.23377 20.0029 6.49765 19.5352 4.97099 18.645L0.00499063 20L1.35699 15.032C0.466084 13.5049 -0.00196181 11.768 0.000990443 10C0.000990443 4.477 4.47799 0 10.001 0ZM6.59299 5.3L6.39299 5.308C6.26351 5.31589 6.13697 5.3499 6.02099 5.408C5.91251 5.46943 5.81349 5.54622 5.72699 5.636C5.60699 5.749 5.53899 5.847 5.46599 5.942C5.09611 6.4229 4.89696 7.01331 4.89999 7.62C4.90199 8.11 5.02999 8.587 5.22999 9.033C5.63899 9.935 6.31199 10.89 7.19999 11.775C7.41399 11.988 7.62399 12.202 7.84999 12.401C8.95338 13.3725 10.2682 14.073 11.69 14.447L12.258 14.534C12.443 14.544 12.628 14.53 12.814 14.521C13.1052 14.506 13.3896 14.4271 13.647 14.29C13.7779 14.2225 13.9057 14.1491 14.03 14.07C14.03 14.07 14.073 14.042 14.155 13.98C14.29 13.88 14.373 13.809 14.485 13.692C14.568 13.606 14.64 13.505 14.695 13.39C14.773 13.227 14.851 12.916 14.883 12.657C14.907 12.459 14.9 12.351 14.897 12.284C14.893 12.177 14.804 12.066 14.707 12.019L14.125 11.758C14.125 11.758 13.255 11.379 12.723 11.137C12.6673 11.1127 12.6077 11.0988 12.547 11.096C12.4786 11.089 12.4094 11.0967 12.3442 11.1186C12.279 11.1405 12.2193 11.1761 12.169 11.223C12.164 11.221 12.097 11.278 11.374 12.154C11.3325 12.2098 11.2753 12.2519 11.2098 12.2751C11.1443 12.2982 11.0733 12.3013 11.006 12.284C10.9408 12.2665 10.877 12.2445 10.815 12.218C10.691 12.166 10.648 12.146 10.563 12.11C9.98906 11.8595 9.45768 11.5211 8.98799 11.107C8.86199 10.997 8.74499 10.877 8.62499 10.761C8.23158 10.3842 7.88871 9.95801 7.60499 9.493L7.54599 9.398C7.50361 9.33416 7.46935 9.2653 7.44399 9.193C7.40599 9.046 7.50499 8.928 7.50499 8.928C7.50499 8.928 7.74799 8.662 7.86099 8.518C7.97099 8.378 8.06399 8.242 8.12399 8.145C8.24199 7.955 8.27899 7.76 8.21699 7.609C7.93699 6.925 7.64699 6.244 7.34899 5.568C7.28999 5.434 7.11499 5.338 6.95599 5.319C6.90199 5.313 6.84799 5.307 6.79399 5.303C6.6597 5.29633 6.52513 5.29766 6.39099 5.307L6.59199 5.299L6.59299 5.3Z"/></symbol>
<symbol id="Viber" viewBox="0 0 20 21">
<path fill-rule="evenodd" clip-rule="evenodd" d="M14.6761 0.627069C11.53 -0.0762104 8.2673 -0.0762104 5.12113 0.627069L4.78213 0.702069C3.89714 0.89993 3.08434 1.33925 2.434 1.97123C1.78366 2.60322 1.32124 3.40311 1.09813 4.28207C0.300624 7.42459 0.300624 10.7165 1.09813 13.8591C1.3109 14.6973 1.74153 15.4644 2.34636 16.0826C2.95119 16.7008 3.70871 17.148 4.54213 17.3791L5.00713 20.1551C5.02197 20.2432 5.06017 20.3258 5.11776 20.3941C5.17535 20.4625 5.25021 20.5142 5.33455 20.5438C5.4189 20.5734 5.50963 20.5799 5.59732 20.5625C5.68501 20.5451 5.76644 20.5046 5.83313 20.4451L8.56413 18.0021C10.6142 18.1272 12.6717 17.9632 14.6761 17.5151L15.0161 17.4401C15.9011 17.2422 16.7139 16.8029 17.3643 16.1709C18.0146 15.5389 18.477 14.739 18.7001 13.8601C19.4975 10.7175 19.4975 7.4256 18.7001 4.28307C18.4769 3.40399 18.0144 2.604 17.3638 1.97201C16.7133 1.34001 15.9003 0.900765 15.0151 0.703069L14.6761 0.627069ZM5.96513 4.20107C5.77927 4.17402 5.58976 4.21143 5.42813 4.30707H5.41413C5.03913 4.52707 4.70113 4.80407 4.41313 5.13007C4.17313 5.40707 4.04313 5.68707 4.00913 5.95707C3.98913 6.11707 4.00313 6.27907 4.05013 6.43207L4.06813 6.44207C4.33813 7.23507 4.69013 7.99807 5.12013 8.71607C5.67458 9.72456 6.35688 10.6573 7.15013 11.4911L7.17413 11.5251L7.21213 11.5531L7.23513 11.5801L7.26313 11.6041C8.09985 12.3997 9.03475 13.0852 10.0451 13.6441C11.2001 14.2731 11.9011 14.5701 12.3221 14.6941V14.7001C12.4451 14.7381 12.5571 14.7551 12.6701 14.7551C13.0287 14.7286 13.368 14.5828 13.6341 14.3411C13.9591 14.0531 14.2341 13.7141 14.4481 13.3371V13.3301C14.6491 12.9501 14.5811 12.5921 14.2911 12.3491C13.7086 11.8401 13.0788 11.388 12.4101 10.9991C11.9621 10.7561 11.5071 10.9031 11.3231 11.1491L10.9301 11.6451C10.7281 11.8911 10.3621 11.8571 10.3621 11.8571L10.3521 11.8631C7.62113 11.1661 6.89213 8.40107 6.89213 8.40107C6.89213 8.40107 6.85813 8.02507 7.11113 7.83307L7.60313 7.43707C7.83913 7.24507 8.00313 6.79107 7.75013 6.34307C7.36373 5.67383 6.91257 5.04414 6.40313 4.46307C6.29202 4.32631 6.13619 4.23317 5.96313 4.20007L5.96513 4.20107ZM10.5791 2.99907C10.4465 2.99907 10.3193 3.05175 10.2256 3.14552C10.1318 3.23928 10.0791 3.36646 10.0791 3.49907C10.0791 3.63168 10.1318 3.75885 10.2256 3.85262C10.3193 3.94639 10.4465 3.99907 10.5791 3.99907C11.8441 3.99907 12.8941 4.41207 13.7251 5.20407C14.1521 5.63707 14.4851 6.15007 14.7031 6.71207C14.9221 7.27507 15.0221 7.87607 14.9961 8.47807C14.9934 8.54373 15.0036 8.60929 15.0262 8.67101C15.0487 8.73273 15.0832 8.78939 15.1277 8.83777C15.2176 8.93548 15.3425 8.9935 15.4751 8.99907C15.6077 9.00464 15.7371 8.9573 15.8348 8.86747C15.9325 8.77764 15.9906 8.65268 15.9961 8.52007C16.0271 7.77955 15.9042 7.04066 15.6351 6.35007C15.3649 5.6562 14.9551 5.02519 14.4311 4.49607L14.4211 4.48607C13.3901 3.50107 12.0851 2.99907 10.5791 2.99907ZM10.5451 4.64307C10.4125 4.64307 10.2853 4.69575 10.1916 4.78952C10.0978 4.88328 10.0451 5.01046 10.0451 5.14307C10.0451 5.27568 10.0978 5.40285 10.1916 5.49662C10.2853 5.59039 10.4125 5.64307 10.5451 5.64307H10.5621C11.4741 5.70807 12.1381 6.01207 12.6031 6.51107C13.0801 7.02507 13.3271 7.66407 13.3081 8.45407C13.3051 8.58668 13.3548 8.71507 13.4464 8.81099C13.5381 8.90692 13.664 8.96252 13.7966 8.96557C13.9292 8.96862 14.0576 8.91887 14.1535 8.82725C14.2495 8.73564 14.3051 8.60968 14.3081 8.47707C14.3321 7.44007 13.9981 6.54507 13.3361 5.83107V5.82907C12.6591 5.10307 11.7301 4.71907 10.6121 4.64407L10.5951 4.64207L10.5451 4.64307ZM10.5261 6.31807C10.4592 6.31216 10.3918 6.3198 10.3279 6.34053C10.264 6.36126 10.2049 6.39465 10.1542 6.43871C10.1035 6.48277 10.0622 6.53659 10.0328 6.59697C10.0033 6.65734 9.98635 6.72303 9.98286 6.79012C9.97936 6.8572 9.98942 6.9243 10.0124 6.98741C10.0354 7.05052 10.0709 7.10835 10.1168 7.15743C10.1626 7.20652 10.2179 7.24587 10.2793 7.27313C10.3407 7.30038 10.407 7.31499 10.4741 7.31607C10.8921 7.33807 11.1591 7.46407 11.3271 7.63307C11.4961 7.80307 11.6221 8.07607 11.6451 8.50307C11.6464 8.57017 11.6611 8.63633 11.6885 8.69761C11.7158 8.75889 11.7553 8.81404 11.8044 8.85976C11.8535 8.90549 11.9113 8.94085 11.9744 8.96375C12.0375 8.98666 12.1045 8.99663 12.1716 8.99307C12.2386 8.98951 12.3042 8.97249 12.3645 8.94304C12.4248 8.91358 12.4785 8.87229 12.5226 8.82162C12.5666 8.77095 12.5999 8.71194 12.6206 8.64811C12.6413 8.58427 12.649 8.51692 12.6431 8.45007C12.6111 7.85007 12.4231 7.32007 12.0381 6.93007C11.6511 6.54007 11.1241 6.35007 10.5261 6.31807Z"/>
</symbol>
<symbol id="ukrposhta" viewBox="0 0 30 40">
<path d="M16.3042 20.44C26.6442 18.295 23.7432 5.885 16.1272 5.885C8.27316 5.885 5.45316 17.115 14.3052 19.969L27.5352 23.079L15.9502 39.5C15.9502 39.5 6.33916 26.434 3.51416 21.83C-2.19584 12.52 4.74816 0.545 15.9612 0.5C28.5272 0.5 33.5012 14.5 24.3442 22.33" stroke-linecap="round" stroke-linejoin="round"/>
</symbol>
<symbol id="Telegram" viewBox="0 0 20 20">
<path d="M10 0C4.48 0 0 4.48 0 10C0 15.52 4.48 20 10 20C15.52 20 20 15.52 20 10C20 4.48 15.52 0 10 0ZM14.64 6.8C14.49 8.38 13.84 12.22 13.51 13.99C13.37 14.74 13.09 14.99 12.83 15.02C12.25 15.07 11.81 14.64 11.25 14.27C10.37 13.69 9.87 13.33 9.02 12.77C8.03 12.12 8.67 11.76 9.24 11.18C9.39 11.03 11.95 8.7 12 8.49C12.0069 8.45819 12.006 8.42517 11.9973 8.3938C11.9886 8.36244 11.9724 8.33367 11.95 8.31C11.89 8.26 11.81 8.28 11.74 8.29C11.65 8.31 10.25 9.24 7.52 11.08C7.12 11.35 6.76 11.49 6.44 11.48C6.08 11.47 5.4 11.28 4.89 11.11C4.26 10.91 3.77 10.8 3.81 10.45C3.83 10.27 4.08 10.09 4.55 9.9C7.47 8.63 9.41 7.79 10.38 7.39C13.16 6.23 13.73 6.03 14.11 6.03C14.19 6.03 14.38 6.05 14.5 6.15C14.6 6.23 14.63 6.34 14.64 6.42C14.63 6.48 14.65 6.66 14.64 6.8Z"/>
</symbol>
<symbol id="pointer" viewBox="0 0 19 23">
<path d="M14.9998 9.49953C14.9998 8.29953 15.9998 7.99953 16.5198 7.99953C17.3588 7.99953 17.9998 8.67153 17.9998 9.49953V15.9995C17.9998 19.9995 14.8658 21.9995 10.9998 21.9995C7.13385 21.9995 5.80385 20.9995 2.80385 15.9995L1.23285 13.3945C0.696849 12.5265 1.12585 11.4005 2.11385 11.0805C2.43691 10.975 2.78462 10.9713 3.10982 11.0701C3.43503 11.1688 3.72201 11.3652 3.93185 11.6325L5.99985 14.0325M5.99985 13.9995V5.51953" stroke="#101010" stroke-width="2" stroke-linecap="round" stroke-linejoin="round"/>
<path d="M15 11V7.5C15 7.10218 14.842 6.72064 14.5607 6.43934C14.2794 6.15804 13.8978 6 13.5 6C13.1022 6 12.7206 6.15804 12.4393 6.43934C12.158 6.72064 12 7.10218 12 7.5V11V6.5C12 6.10218 11.842 5.72064 11.5607 5.43934C11.2794 5.15804 10.8978 5 10.5 5C10.1022 5 9.72064 5.15804 9.43934 5.43934C9.15804 5.72064 9 6.10218 9 6.5V11V2.5C9 2.10218 8.84196 1.72064 8.56066 1.43934C8.27936 1.15804 7.89782 1 7.5 1C7.10218 1 6.72064 1.15804 6.43934 1.43934C6.15804 1.72064 6 2.10218 6 2.5V11" stroke-width="2" stroke-linecap="round" stroke-linejoin="round"/>
</symbol>
<symbol id="phone" viewBox="0 0 18 18">
<path d="M16.95 18C14.8667 18 12.8083 17.5457 10.775 16.637C8.74167 15.7283 6.89167 14.441 5.225 12.775C3.55833 11.1083 2.271 9.25833 1.363 7.225C0.455 5.19167 0.000666667 3.13333 0 1.05C0 0.75 0.0999999 0.5 0.3 0.3C0.5 0.0999999 0.75 0 1.05 0H5.1C5.33333 0 5.54167 0.0793332 5.725 0.238C5.90833 0.396667 6.01667 0.584 6.05 0.8L6.7 4.3C6.73333 4.56667 6.725 4.79167 6.675 4.975C6.625 5.15833 6.53333 5.31667 6.4 5.45L3.975 7.9C4.30833 8.51667 4.704 9.11233 5.162 9.687C5.62 10.2617 6.12433 10.816 6.675 11.35C7.19167 11.8667 7.73333 12.346 8.3 12.788C8.86667 13.23 9.46667 13.634 10.1 14L12.45 11.65C12.6 11.5 12.796 11.3873 13.038 11.312C13.28 11.2367 13.5173 11.216 13.75 11.25L17.2 11.95C17.4333 12.0167 17.625 12.1377 17.775 12.313C17.925 12.4883 18 12.684 18 12.9V16.95C18 17.25 17.9 17.5 17.7 17.7C17.5 17.9 17.25 18 16.95 18Z"/>
</symbol>
<symbol id="novaposhta" viewBox="0 0 38 38">
<path d="M0.5 19L7.988 11.512V26.488L0.5 19ZM37.5 19L30.012 11.512V26.488L37.5 19ZM15.476 22.524H22.524V30.012H26.488L19 37.5L11.512 30.012H15.476V22.524ZM15.476 15.476H22.524V7.988H26.488L19 0.5L11.512 7.988H15.476V15.476Z" stroke-linecap="round" stroke-linejoin="round"/>
</symbol>
<symbol id="ukrposhta" viewBox="0 0 38 38">
<path d="M16.3042 20.44C26.6442 18.295 23.7432 5.885 16.1272 5.885C8.27316 5.885 5.45316 17.115 14.3052 19.969L27.5352 23.079L15.9502 39.5C15.9502 39.5 6.33916 26.434 3.51416 21.83C-2.19584 12.52 4.74816 0.545 15.9612 0.5C28.5272 0.5 33.5012 14.5 24.3442 22.33" stroke-linecap="round" stroke-linejoin="round"/>
</symbol>
<symbol id="applePay" viewBox="0 0 60 24">
<path d="M11.5228 3.12773C10.8404 3.93531 9.74821 4.5725 8.65615 4.4814C8.51966 3.38945 9.05426 2.22904 9.67996 1.51233C10.3624 0.682002 11.557 0.0904195 12.5239 0.0449219C12.6376 1.18248 12.1939 2.29728 11.5228 3.12773ZM12.5125 4.69762C10.9313 4.60663 9.57759 5.5962 8.82677 5.5962C8.06468 5.5962 6.91564 4.74312 5.66434 4.76587C4.03769 4.78862 2.52466 5.70995 1.69422 7.17747C-0.0121701 10.1124 1.25062 14.458 2.90002 16.8469C3.70772 18.0299 4.67465 19.3267 5.9487 19.2812C7.15462 19.2357 7.63234 18.4964 9.08849 18.4964C10.5559 18.4964 10.9769 19.2812 12.2509 19.2585C13.5705 19.2357 14.4009 18.0755 15.2086 16.8924C16.1299 15.5501 16.5054 14.2418 16.5282 14.1735C16.5054 14.1508 13.9801 13.184 13.9573 10.2717C13.9346 7.8373 15.9481 6.677 16.0391 6.60875C14.9014 4.92511 13.1269 4.74312 12.5125 4.69762ZM21.6473 1.39859V19.1335H24.4002V13.0702H28.211C31.6919 13.0702 34.1378 10.6814 34.1378 7.22308C34.1378 3.76492 31.7374 1.3987 28.302 1.3987H21.6472L21.6473 1.39859ZM24.4002 3.71931H27.574C29.9629 3.71931 31.328 4.99336 31.328 7.23434C31.328 9.47533 29.9629 10.7609 27.5626 10.7609H24.4002V3.71931ZM39.1658 19.2698C40.895 19.2698 42.4989 18.394 43.227 17.0061H43.2838V19.1333H45.832V10.3058C45.832 7.74631 43.7844 6.09679 40.6332 6.09679C37.7097 6.09679 35.5483 7.76905 35.4687 10.0669H37.9487C38.1534 8.97486 39.1657 8.25815 40.5536 8.25815C42.2373 8.25815 43.1815 9.0431 43.1815 10.4879V11.4661L39.7459 11.6708C36.5494 11.8642 34.8204 13.1725 34.8204 15.4477C34.8204 17.7455 36.6063 19.2698 39.1658 19.2698ZM39.9052 17.1653C38.4379 17.1653 37.5049 16.4601 37.5049 15.3793C37.5049 14.2646 38.4036 13.6162 40.1214 13.5138L43.1815 13.3204V14.3214C43.1815 15.9823 41.7709 17.1653 39.9053 17.1653H39.9052ZM49.2333 23.9567C51.918 23.9567 53.1807 22.933 54.2841 19.8273L59.1188 6.26741H56.3204L53.0783 16.7444H53.0215L49.7794 6.26741H46.9013L51.5653 19.1788L51.3151 19.9638C50.8942 21.2947 50.2116 21.8067 48.9945 21.8067C48.7783 21.8067 48.3575 21.7839 48.1868 21.7612V23.8884C48.346 23.9339 49.0285 23.9567 49.2333 23.9567Z"/>
</symbol>
<symbol id="arrow-down" viewBox="0 0 10 14">
<path fill-rule="evenodd" clip-rule="evenodd" d="M4.99965 0C5.13226 0 5.25944 0.0526784 5.35321 0.146447C5.44698 0.240215 5.49965 0.367392 5.49965 0.5V12.293L8.64565 9.146C8.73954 9.05211 8.86688 8.99937 8.99965 8.99937C9.13243 8.99937 9.25977 9.05211 9.35365 9.146C9.44754 9.23989 9.50029 9.36722 9.50029 9.5C9.50029 9.63278 9.44754 9.76011 9.35365 9.854L5.35365 13.854C5.30721 13.9006 5.25203 13.9375 5.19129 13.9627C5.13054 13.9879 5.06542 14.0009 4.99965 14.0009C4.93389 14.0009 4.86877 13.9879 4.80802 13.9627C4.74728 13.9375 4.6921 13.9006 4.64565 13.854L0.645655 9.854C0.551768 9.76011 0.499023 9.63278 0.499023 9.5C0.499023 9.36722 0.551768 9.23989 0.645655 9.146C0.739542 9.05211 0.866879 8.99937 0.999655 8.99937C1.13243 8.99937 1.25977 9.05211 1.35366 9.146L4.49965 12.293V0.5C4.49965 0.367392 4.55233 0.240215 4.6461 0.146447C4.73987 0.0526784 4.86705 0 4.99965 0Z"/>
</symbol>
<symbol id="arrow-drop-down-rounded" viewBox="0 0 8 5">
<path d="M3.29977 4.3L0.699768 1.7C0.383101 1.38333 0.312435 1.021 0.487768 0.613C0.662435 0.204333 0.974768 0 1.42477 0H6.57477C7.02477 0 7.3371 0.204333 7.51177 0.613C7.6871 1.021 7.61643 1.38333 7.29977 1.7L4.69977 4.3C4.59977 4.4 4.49143 4.475 4.37477 4.525C4.2581 4.575 4.1331 4.6 3.99977 4.6C3.86643 4.6 3.74143 4.575 3.62477 4.525C3.5081 4.475 3.39977 4.4 3.29977 4.3Z"/>
</symbol>
<symbol id="arrow-right" viewBox="0 0 14 10">
<path fill-rule="evenodd" clip-rule="evenodd" d="M0 4.99965C0 4.86705 0.0526784 4.73987 0.146447 4.6461C0.240215 4.55233 0.367392 4.49965 0.5 4.49965H12.293L9.146 1.35366C9.05211 1.25977 8.99937 1.13243 8.99937 0.999655C8.99937 0.866879 9.05211 0.739542 9.146 0.645655C9.23989 0.551768 9.36722 0.499023 9.5 0.499023C9.63278 0.499023 9.76011 0.551768 9.854 0.645655L13.854 4.64565C13.9006 4.6921 13.9375 4.74728 13.9627 4.80802C13.9879 4.86877 14.0009 4.93389 14.0009 4.99965C14.0009 5.06542 13.9879 5.13054 13.9627 5.19129C13.9375 5.25203 13.9006 5.30721 13.854 5.35365L9.854 9.35365C9.76011 9.44754 9.63278 9.50029 9.5 9.50029C9.36722 9.50029 9.23989 9.44754 9.146 9.35365C9.05211 9.25977 8.99937 9.13243 8.99937 8.99965C8.99937 8.86688 9.05211 8.73954 9.146 8.64565L12.293 5.49965H0.5C0.367392 5.49965 0.240215 5.44698 0.146447 5.35321C0.0526784 5.25944 0 5.13226 0 4.99965Z"/>
</symbol>
<symbol id="burger-menu" viewBox="0 0 18 12">
<path d="M0 12V10H18V12H0ZM0 7V5H18V7H0ZM0 2V0H18V2H0Z"/>
</symbol>
<symbol id="calendar" viewBox="0 0 18 21">
<path d="M8 12.5V10.5H10V12.5H8ZM4 12.5V10.5H6V12.5H4ZM12 12.5V10.5H14V12.5H12ZM8 16.5V14.5H10V16.5H8ZM4 16.5V14.5H6V16.5H4ZM12 16.5V14.5H14V16.5H12ZM0 20.5V2.5H3V0.5H5V2.5H13V0.5H15V2.5H18V20.5H0ZM2 18.5H16V8.5H2V18.5ZM2 6.5H16V4.5H2V6.5Z"/>
</symbol>
<symbol id="card-list" viewBox="0 0 16 12">
<path d="M14.5 1C14.6326 1 14.7598 1.05268 14.8536 1.14645C14.9473 1.24021 15 1.36739 15 1.5V10.5C15 10.6326 14.9473 10.7598 14.8536 10.8536C14.7598 10.9473 14.6326 11 14.5 11H1.5C1.36739 11 1.24021 10.9473 1.14645 10.8536C1.05268 10.7598 1 10.6326 1 10.5V1.5C1 1.36739 1.05268 1.24021 1.14645 1.14645C1.24021 1.05268 1.36739 1 1.5 1H14.5ZM1.5 0C1.10218 0 0.720644 0.158035 0.43934 0.43934C0.158035 0.720644 0 1.10218 0 1.5L0 10.5C0 10.8978 0.158035 11.2794 0.43934 11.5607C0.720644 11.842 1.10218 12 1.5 12H14.5C14.8978 12 15.2794 11.842 15.5607 11.5607C15.842 11.2794 16 10.8978 16 10.5V1.5C16 1.10218 15.842 0.720644 15.5607 0.43934C15.2794 0.158035 14.8978 0 14.5 0H1.5Z" fill="black"/>
<path d="M5 6C5 5.86739 5.05268 5.74021 5.14645 5.64645C5.24021 5.55268 5.36739 5.5 5.5 5.5H12.5C12.6326 5.5 12.7598 5.55268 12.8536 5.64645C12.9473 5.74021 13 5.86739 13 6C13 6.13261 12.9473 6.25979 12.8536 6.35355C12.7598 6.44732 12.6326 6.5 12.5 6.5H5.5C5.36739 6.5 5.24021 6.44732 5.14645 6.35355C5.05268 6.25979 5 6.13261 5 6ZM5 3.5C5 3.36739 5.05268 3.24021 5.14645 3.14645C5.24021 3.05268 5.36739 3 5.5 3H12.5C12.6326 3 12.7598 3.05268 12.8536 3.14645C12.9473 3.24021 13 3.36739 13 3.5C13 3.63261 12.9473 3.75979 12.8536 3.85355C12.7598 3.94732 12.6326 4 12.5 4H5.5C5.36739 4 5.24021 3.94732 5.14645 3.85355C5.05268 3.75979 5 3.63261 5 3.5ZM5 8.5C5 8.36739 5.05268 8.24021 5.14645 8.14645C5.24021 8.05268 5.36739 8 5.5 8H12.5C12.6326 8 12.7598 8.05268 12.8536 8.14645C12.9473 8.24021 13 8.36739 13 8.5C13 8.63261 12.9473 8.75979 12.8536 8.85355C12.7598 8.94732 12.6326 9 12.5 9H5.5C5.36739 9 5.24021 8.94732 5.14645 8.85355C5.05268 8.75979 5 8.63261 5 8.5ZM4 3.5C4 3.63261 3.94732 3.75979 3.85355 3.85355C3.75979 3.94732 3.63261 4 3.5 4C3.36739 4 3.24021 3.94732 3.14645 3.85355C3.05268 3.75979 3 3.63261 3 3.5C3 3.36739 3.05268 3.24021 3.14645 3.14645C3.24021 3.05268 3.36739 3 3.5 3C3.63261 3 3.75979 3.05268 3.85355 3.14645C3.94732 3.24021 4 3.36739 4 3.5ZM4 6C4 6.13261 3.94732 6.25979 3.85355 6.35355C3.75979 6.44732 3.63261 6.5 3.5 6.5C3.36739 6.5 3.24021 6.44732 3.14645 6.35355C3.05268 6.25979 3 6.13261 3 6C3 5.86739 3.05268 5.74021 3.14645 5.64645C3.24021 5.55268 3.36739 5.5 3.5 5.5C3.63261 5.5 3.75979 5.55268 3.85355 5.64645C3.94732 5.74021 4 5.86739 4 6ZM4 8.5C4 8.63261 3.94732 8.75979 3.85355 8.85355C3.75979 8.94732 3.63261 9 3.5 9C3.36739 9 3.24021 8.94732 3.14645 8.85355C3.05268 8.75979 3 8.63261 3 8.5C3 8.36739 3.05268 8.24021 3.14645 8.14645C3.24021 8.05268 3.36739 8 3.5 8C3.63261 8 3.75979 8.05268 3.85355 8.14645C3.94732 8.24021 4 8.36739 4 8.5Z"/>
</symbol>
<symbol id="checkbox-checked" viewBox="0 0 20 20">
<path d="M16.75 0.25H3.25C2.45462 0.250869 1.69206 0.567218 1.12964 1.12964C0.567218 1.69206 0.250869 2.45462 0.25 3.25V16.75C0.250869 17.5454 0.567218 18.3079 1.12964 18.8704C1.69206 19.4328 2.45462 19.7491 3.25 19.75H16.75C17.5454 19.7491 18.3079 19.4328 18.8704 18.8704C19.4328 18.3079 19.7491 17.5454 19.75 16.75V3.25C19.7491 2.45462 19.4328 1.69206 18.8704 1.12964C18.3079 0.567218 17.5454 0.250869 16.75 0.25ZM15.0742 6.73234L8.77422 14.2323C8.70511 14.3147 8.61912 14.3812 8.52207 14.4273C8.42502 14.4735 8.31918 14.4983 8.21172 14.5H8.19906C8.09394 14.5 7.99 14.4778 7.89398 14.435C7.79797 14.3922 7.71202 14.3297 7.64172 14.2516L4.94172 11.2516C4.87315 11.1788 4.81981 11.0931 4.78483 10.9995C4.74986 10.9059 4.73395 10.8062 4.73805 10.7063C4.74215 10.6064 4.76617 10.5084 4.8087 10.4179C4.85124 10.3275 4.91142 10.2464 4.98572 10.1796C5.06002 10.1127 5.14694 10.0614 5.24136 10.0286C5.33579 9.99578 5.43581 9.98219 5.53556 9.98861C5.63531 9.99502 5.73277 10.0213 5.82222 10.0659C5.91166 10.1106 5.99128 10.1726 6.05641 10.2484L8.17938 12.6072L13.9258 5.76766C14.0547 5.61863 14.237 5.52631 14.4335 5.51066C14.6299 5.49501 14.8246 5.55728 14.9754 5.68402C15.1263 5.81075 15.2212 5.99176 15.2397 6.18793C15.2582 6.3841 15.1988 6.57966 15.0742 6.73234Z"/>
</symbol>
<symbol id="checked" viewBox="0 0 13 11">
<path d="M10.455 0.954736C10.6663 0.753569 10.9475 0.642356 11.2392 0.644563C11.531 0.646771 11.8104 0.762226 12.0187 0.966567C12.2269 1.17091 12.3476 1.44815 12.3553 1.7398C12.363 2.03144 12.2571 2.31468 12.06 2.52974L6.07499 10.0147C5.97208 10.1256 5.84787 10.2145 5.70979 10.2763C5.57171 10.338 5.4226 10.3713 5.27137 10.3741C5.12014 10.3769 4.9699 10.3492 4.82963 10.2926C4.68936 10.236 4.56194 10.1517 4.45499 10.0447L0.485992 6.07574C0.375462 5.97274 0.286809 5.84854 0.225321 5.71054C0.163833 5.57254 0.13077 5.42357 0.128105 5.27252C0.12544 5.12147 0.153227 4.97142 0.209808 4.83134C0.26639 4.69126 0.350607 4.56401 0.457435 4.45718C0.564263 4.35035 0.691514 4.26613 0.831596 4.20955C0.971678 4.15297 1.12172 4.12518 1.27278 4.12785C1.42383 4.13051 1.5728 4.16358 1.7108 4.22506C1.8488 4.28655 1.973 4.37521 2.07599 4.48574L5.21699 7.62524L10.4265 0.987736C10.4359 0.976187 10.4444 0.96517 10.455 0.954736Z"/>
</symbol>
<symbol id="clock" viewBox="0 0 20 20">
  <path d="M 9.99,0 C 4.47,0 0,4.48 0,10 0,15.52 4.47,20 9.99,20 15.52,20 20,15.52 20,10 20,4.48 15.52,0 9.99,0 Z M 10,18 C 5.58,18 2,14.42 2,10 2,5.58 5.58,2 10,2 c 4.42,0 8,3.58 8,8 0,4.42 -3.58,8 -8,8 z"/>
  <path d="M 10.423536,5.0785245 H 8.9235365 v 5.9999995 l 5.2500005,3.15 0.75,-1.23 -4.500001,-2.67 z"/>
</symbol>
<symbol id="close" viewBox="0 0 10 10">
<path d="M9.31209 2.24111C9.38376 2.17196 9.44093 2.08923 9.48028 1.99775C9.51963 1.90626 9.54036 1.80786 9.54128 1.70827C9.54219 1.60869 9.52326 1.50992 9.48559 1.41773C9.44792 1.32554 9.39227 1.24178 9.32189 1.17133C9.2515 1.10087 9.16779 1.04514 9.07564 1.00739C8.98348 0.969636 8.88473 0.950614 8.78515 0.951432C8.68556 0.95225 8.58714 0.972892 8.49562 1.01216C8.4041 1.05142 8.32131 1.10852 8.25209 1.18011L5.24609 4.18511L2.24109 1.18011C2.17243 1.10643 2.08963 1.04733 1.99763 1.00633C1.90563 0.965342 1.80632 0.9433 1.70561 0.941523C1.60491 0.939746 1.50488 0.958271 1.41149 0.995992C1.31811 1.03371 1.23327 1.08986 1.16205 1.16108C1.09083 1.2323 1.03469 1.31713 0.996969 1.41052C0.959248 1.5039 0.940723 1.60393 0.9425 1.70464C0.944276 1.80534 0.966318 1.90465 1.00731 1.99665C1.0483 2.08865 1.1074 2.17145 1.18109 2.24012L4.18409 5.24611L1.17909 8.25111C1.04661 8.39329 0.974488 8.58134 0.977916 8.77564C0.981344 8.96994 1.06006 9.15532 1.19747 9.29274C1.33488 9.43015 1.52027 9.50886 1.71457 9.51229C1.90887 9.51572 2.09692 9.44359 2.23909 9.31112L5.24609 6.30612L8.25109 9.31211C8.39327 9.44459 8.58131 9.51672 8.77561 9.51329C8.96992 9.50986 9.1553 9.43115 9.29271 9.29374C9.43013 9.15632 9.50884 8.97094 9.51227 8.77664C9.51569 8.58234 9.44357 8.39429 9.31109 8.25211L6.30809 5.24611L9.31209 2.24111Z"/>
</symbol>
<symbol id="email" viewBox="0 0 21 16">
<path d="M2.5 16C1.95 16 1.479 15.804 1.087 15.412C0.695002 15.02 0.499335 14.5493 0.500002 14V2C0.500002 1.45 0.696002 0.979002 1.088 0.587002C1.48 0.195002 1.95067 -0.000664969 2.5 1.69779e-06H18.5C19.05 1.69779e-06 19.521 0.196001 19.913 0.588001C20.305 0.980001 20.5007 1.45067 20.5 2V14C20.5 14.55 20.304 15.021 19.912 15.413C19.52 15.805 19.0493 16.0007 18.5 16H2.5ZM10.5 9L2.5 4V14H18.5V4L10.5 9ZM10.5 7L18.5 2H2.5L10.5 7ZM2.5 4V2V14V4Z"/>
</symbol>
<symbol id="flag-ukraine" viewBox="0 0 24 24">
<g clip-path="url(#clip0_1737_3144)">
<path d="M21.3333 3.33398H2.66667C1.95942 3.33398 1.28115 3.61494 0.781049 4.11503C0.280952 4.61513 0 5.29341 0 6.00065L0 12.0007H24V6.00065C24 5.29341 23.719 4.61513 23.219 4.11503C22.7189 3.61494 22.0406 3.33398 21.3333 3.33398Z" fill="#005BBB"/>
<path d="M24 18C24 18.7072 23.719 19.3855 23.219 19.8856C22.7189 20.3857 22.0406 20.6667 21.3333 20.6667H2.66667C1.95942 20.6667 1.28115 20.3857 0.781049 19.8856C0.280952 19.3855 0 18.7072 0 18V12H24V18Z" fill="#FFD500"/>
</g>
<defs>
<clipPath id="clip0_1737_3144">
<rect width="24" height="24" />
</clipPath>
</defs>
</symbol>
<symbol id="geo" viewBox="0 0 14 20">
<path d="M7 9.5C6.33696 9.5 5.70107 9.23661 5.23223 8.76777C4.76339 8.29893 4.5 7.66304 4.5 7C4.5 6.33696 4.76339 5.70107 5.23223 5.23223C5.70107 4.76339 6.33696 4.5 7 4.5C7.66304 4.5 8.29893 4.76339 8.76777 5.23223C9.23661 5.70107 9.5 6.33696 9.5 7C9.5 7.3283 9.43534 7.65339 9.3097 7.95671C9.18406 8.26002 8.99991 8.53562 8.76777 8.76777C8.53562 8.99991 8.26002 9.18406 7.95671 9.3097C7.65339 9.43534 7.3283 9.5 7 9.5ZM7 0C5.14348 0 3.36301 0.737498 2.05025 2.05025C0.737498 3.36301 0 5.14348 0 7C0 12.25 7 20 7 20C7 20 14 12.25 14 7C14 5.14348 13.2625 3.36301 11.9497 2.05025C10.637 0.737498 8.85652 0 7 0Z"/>
</symbol>
<symbol id="googlePay" viewBox="0 0 62 24">
<g clip-path="url(#clip0_677_23747)">
<path d="M43.5801 6.47785C45.2359 6.47785 46.5156 6.92949 47.4942 7.83279C48.4726 8.73596 48.9242 9.94032 48.9242 11.4457V18.6716H46.8166V17.0158H46.7414C45.8382 18.3708 44.5585 19.0482 43.0531 19.0482C41.7735 19.0482 40.6444 18.6717 39.7412 17.9191C38.9132 17.1664 38.3863 16.1127 38.3863 14.9836C38.3863 13.7793 38.8381 12.8007 39.7412 12.048C40.6444 11.2953 41.9241 10.9942 43.4295 10.9942C44.7843 10.9942 45.8382 11.2201 46.6661 11.7469V11.2201C46.6661 10.5175 46.4038 9.81502 45.8792 9.35726L45.7628 9.26302C45.1606 8.73608 44.4079 8.43502 43.5801 8.43502C42.3004 8.43502 41.3219 8.96196 40.6444 10.0157L38.6875 8.81114C39.8917 7.23043 41.4724 6.47785 43.5801 6.47785ZM32.9669 1.35949C34.3175 1.35949 35.601 1.82949 36.6272 2.70596L36.8057 2.86479C37.8595 3.76808 38.3863 5.12302 38.3863 6.55314C38.3863 7.98326 37.8595 9.2629 36.8057 10.2414C35.7518 11.22 34.4723 11.7468 32.9669 11.7468L29.3539 11.6715V18.6717H27.0957V1.35938L32.9669 1.35949ZM43.881 12.8007C42.9778 12.8007 42.2251 13.0264 41.623 13.4781C41.0208 13.8544 40.7197 14.3813 40.7197 15.0587C40.7197 15.6609 41.0209 16.1877 41.4724 16.4889C41.9993 16.8653 42.6015 17.091 43.2037 17.091C44.0466 17.091 44.8897 16.7631 45.5491 16.1687L45.6876 16.0373C46.4403 15.3598 46.8166 14.5318 46.8166 13.6286C46.1392 13.1017 45.1606 12.8006 43.8811 12.8006L43.881 12.8007ZM33.1175 3.46702H29.3539V9.48879H33.1175C33.9454 9.48879 34.7734 9.18773 35.3003 8.58561C36.5045 7.45655 36.5045 5.57479 35.3756 4.44561L35.3003 4.37032C34.6981 3.7682 33.9453 3.39185 33.1173 3.46714L33.1175 3.46702ZM61.1181 6.8542L53.6663 23.9407H51.4082L54.1931 17.9943L49.3005 6.92949H51.7092L55.2469 15.435H55.3222L58.7846 6.92949H61.1181V6.8542Z" fill="#5F6368"/>
<path d="M20.3961 10.165C20.3961 9.48764 20.3208 8.81022 20.2455 8.13281H10.8369V11.9716H16.181C15.9553 13.1759 15.2779 14.3049 14.2241 14.9825V17.4663H17.4607C19.3424 15.7352 20.3962 13.1759 20.3962 10.1652L20.3961 10.165Z" fill="#4285F4"/>
<path d="M10.837 19.8763C13.5466 19.8763 15.8047 18.973 17.4607 17.4676L14.2241 14.9837C13.3208 15.5858 12.1918 15.9621 10.837 15.9621C8.27767 15.9621 6.01955 14.231 5.26684 11.8223H1.95508V14.3814C3.68625 17.7686 7.07343 19.8763 10.837 19.8763Z" fill="#34A853"/>
<path d="M5.26725 11.8218C4.81572 10.6175 4.81572 9.26265 5.26725 7.983V5.42383H1.95549C0.525254 8.20889 0.525254 11.5208 1.95549 14.381L5.26725 11.8218Z" fill="#FBBC04"/>
<path d="M10.837 3.91816C12.2671 3.91816 13.6219 4.4451 14.6758 5.42357L17.536 2.56333C15.7294 0.907334 13.3209 -0.0711364 10.9122 0.00404006C7.14863 0.00404006 3.68627 2.11169 2.03027 5.49886L5.34216 8.05804C6.01957 5.64933 8.27768 3.91816 10.837 3.91816Z" fill="#EA4335"/>
</g>
<defs>
<clipPath id="clip0_677_23747">
<rect width="60.24" height="24" fill="white" transform="translate(0.879883)"/>
</clipPath>
</defs>
</symbol>
<symbol id="home" viewBox="0 0 16 19">
<path d="M0 18.5V6.5L8 0.5L16 6.5V18.5H10V11.5H6V18.5H0Z"/>
</symbol>
<symbol id="i" viewBox="0 0 8 16">
<path d="M5 14V6H1V8H3V14H0V16H8V14H5ZM4 0C3.70333 0 3.41332 0.0879731 3.16665 0.252795C2.91997 0.417617 2.72771 0.651886 2.61418 0.925975C2.50065 1.20006 2.47094 1.50166 2.52882 1.79264C2.5867 2.08361 2.72956 2.35088 2.93934 2.56066C3.14912 2.77044 3.41639 2.9133 3.70736 2.97118C3.99834 3.02906 4.29993 2.99935 4.57402 2.88582C4.84811 2.77229 5.08238 2.58003 5.2472 2.33335C5.41203 2.08668 5.5 1.79667 5.5 1.5C5.5 1.10218 5.34196 0.720644 5.06066 0.43934C4.77936 0.158035 4.39782 0 4 0Z" />
</symbol>
<symbol id="logout" viewBox="0 0 17 17">
<path d="M3 2.5C3.26522 2.5 3.51957 2.39464 3.70711 2.20711C3.89464 2.01957 4 1.76522 4 1.5C4 1.23478 3.89464 0.98043 3.70711 0.792893C3.51957 0.605357 3.26522 0.5 3 0.5H1C0.734784 0.5 0.48043 0.605357 0.292893 0.792893C0.105357 0.98043 0 1.23478 0 1.5V15.5C0 15.7652 0.105357 16.0196 0.292893 16.2071C0.48043 16.3946 0.734784 16.5 1 16.5H3C3.26522 16.5 3.51957 16.3946 3.70711 16.2071C3.89464 16.0196 4 15.7652 4 15.5C4 15.2348 3.89464 14.9804 3.70711 14.7929C3.51957 14.6054 3.26522 14.5 3 14.5H2V2.5H3ZM16.82 7.92L14 3.92C13.8471 3.70441 13.615 3.55814 13.3545 3.51317C13.0941 3.4682 12.8264 3.52818 12.61 3.68C12.5018 3.75579 12.4098 3.85224 12.3391 3.96381C12.2684 4.07537 12.2206 4.19982 12.1982 4.32998C12.1759 4.46015 12.1796 4.59344 12.2091 4.72217C12.2386 4.8509 12.2933 4.97252 12.37 5.08L14.09 7.5H6C5.73478 7.5 5.48043 7.60536 5.29289 7.79289C5.10536 7.98043 5 8.23478 5 8.5C5 8.76522 5.10536 9.01957 5.29289 9.20711C5.48043 9.39464 5.73478 9.5 6 9.5H14L12.2 11.9C12.1212 12.0051 12.0639 12.1246 12.0313 12.2518C11.9987 12.379 11.9915 12.5114 12.01 12.6414C12.0286 12.7714 12.0726 12.8965 12.1395 13.0095C12.2064 13.1225 12.2949 13.2212 12.4 13.3C12.5731 13.4298 12.7836 13.5 13 13.5C13.1552 13.5 13.3084 13.4639 13.4472 13.3944C13.5861 13.325 13.7069 13.2242 13.8 13.1L16.8 9.1C16.9281 8.93087 16.999 8.72539 17.0026 8.51326C17.0062 8.30114 16.9423 8.09338 16.82 7.92Z"/>
</symbol>
</defs>
</svg>
