<svg aria-hidden="true" style="position: absolute; width: 0; height: 0; overflow: hidden;" version="1.1" xmlns="http://www.w3.org/2000/svg" xmlns:xlink="http://www.w3.org/1999/xlink">
<defs>
<symbol id="close" viewBox="0 0 32 32" stroke-linejoin="round" stroke-linecap="round"  stroke-width="2.7">
<path d="M24 8l-16 16"></path>
<path d="M8 8l16 16"></path>
</symbol>
<symbol id="star" viewBox="0 0 16 15">
<path d="M3.61163 14.9435C3.22563 15.1415 2.78763 14.7945 2.86563 14.3515L3.69563 9.6215L0.17263 6.2655C-0.15637 5.9515 0.01463 5.3775 0.45563 5.3155L5.35363 4.6195L7.53763 0.2925C7.73463 -0.0975 8.26763 -0.0975 8.46463 0.2925L10.6486 4.6195L15.5466 5.3155C15.9876 5.3775 16.1586 5.9515 15.8286 6.2655L12.3066 9.6215L13.1366 14.3515C13.2146 14.7945 12.7766 15.1415 12.3906 14.9435L7.99963 12.6875L3.61163 14.9435Z"/>
</symbol>
<symbol id="search-less" viewBox="0 0 20 20" stroke-width="1.8" stroke-linecap="round" stroke-linejoin="round">
    <path
        d="M9.16667 15.8333C12.8486 15.8333 15.8333 12.8486 15.8333 9.16667C15.8333 5.48477 12.8486 2.5 9.16667 2.5C5.48477 2.5 2.5 5.48477 2.5 9.16667C2.5 12.8486 5.48477 15.8333 9.16667 15.8333Z"
         />
    <path d="M17.5 17.5L13.875 13.875"/>
</symbol>
<symbol id="search" viewBox="0 0 24 24">
  <path d="M17.6134 15.5171C19.0658 13.5352 19.7163 11.0779 19.4348 8.63685C19.1533 6.19584 17.9605 3.95114 16.095 2.35182C14.2295 0.752509 11.829 -0.0834673 9.37362 0.0111424C6.91825 0.105752 4.58915 1.12397 2.85227 2.86209C1.1154 4.60021 0.098846 6.93004 0.00599324 9.38548C-0.0868595 11.8409 0.750834 14.2409 2.35148 16.1052C3.95213 17.9695 6.19769 19.1607 8.6389 19.4405C11.0801 19.7203 13.5369 19.068 15.5179 17.6141H15.5164C15.5614 17.6741 15.6094 17.7311 15.6634 17.7866L21.4384 23.5616C21.7196 23.8431 22.1012 24.0013 22.4991 24.0014C22.897 24.0016 23.2787 23.8436 23.5601 23.5624C23.8416 23.2811 23.9998 22.8996 23.9999 22.5017C24.0001 22.1038 23.8421 21.7221 23.5609 21.4406L17.7859 15.6656C17.7322 15.6113 17.6746 15.5627 17.6134 15.5171ZM18.0004 9.75113C18.0004 10.8345 17.787 11.9073 17.3724 12.9083C16.9578 13.9092 16.3501 14.8187 15.584 15.5848C14.8179 16.3508 13.9084 16.9585 12.9075 17.3731C11.9066 17.7877 10.8338 18.0011 9.75037 18.0011C8.66696 18.0011 7.59417 17.7877 6.59323 17.3731C5.5923 16.9585 4.68282 16.3508 3.91674 15.5848C3.15066 14.8187 2.54297 13.9092 2.12836 12.9083C1.71376 11.9073 1.50037 10.8345 1.50037 9.75113C1.50037 7.56309 2.36956 5.46467 3.91674 3.9175C5.46391 2.37032 7.56233 1.50113 9.75037 1.50113C11.9384 1.50113 14.0368 2.37032 15.584 3.9175C17.1312 5.46467 18.0004 7.56309 18.0004 9.75113Z"/></symbol>
<symbol id="favorite" viewBox="0 0 24 23">
  <path d="M11.9998 4.12207L10.9243 3.01657C8.39984 0.421573 3.77084 1.31707 2.09984 4.57957C1.31534 6.11407 1.13834 8.32957 2.57084 11.1571C3.95084 13.8796 6.82184 17.1406 11.9998 20.6926C17.1778 17.1406 20.0473 13.8796 21.4288 11.1571C22.8613 8.32807 22.6858 6.11407 21.8998 4.57957C20.2288 1.31707 15.5998 0.420073 13.0753 3.01507L11.9998 4.12207ZM11.9998 22.5001C-10.9997 7.30207 4.91834 -4.55993 11.7358 1.71457C11.8258 1.79707 11.9143 1.88257 11.9998 1.97107C12.0845 1.88265 12.1725 1.79759 12.2638 1.71607C19.0798 -4.56293 34.9993 7.30057 11.9998 22.5001Z"/></symbol>
<symbol id="cart" viewBox="0 0 24 24">
 <path d="M23.8042 6.6553C23.7354 6.5576 23.6442 6.47785 23.5381 6.42278C23.4321 6.36771 23.3144 6.33892 23.1949 6.33884H7.27762L6.07274 2.18384C5.60024 0.547719 4.47747 0.371094 4.01697 0.371094H0.804344C0.39257 0.371094 0.0595703 0.704469 0.0595703 1.11584C0.0595703 1.52722 0.392945 1.86057 0.80432 1.86057H4.01657C4.1182 1.86057 4.42832 1.86057 4.63984 2.59145L8.78472 17.8243C8.87472 18.1457 9.16759 18.3677 9.5017 18.3677H19.6259C19.9402 18.3677 20.2207 18.1708 20.3268 17.8749L23.8953 7.33555C23.9775 7.10717 23.9433 6.85292 23.8042 6.6553H23.8042ZM19.1018 16.8786H10.067L7.69623 7.82872H22.136L19.1018 16.8786ZM17.6247 19.8771C16.589 19.8771 15.7497 20.7163 15.7497 21.7521C15.7497 22.7878 16.589 23.6271 17.6247 23.6271C18.6605 23.6271 19.4997 22.7878 19.4997 21.7521C19.4997 20.7163 18.6605 19.8771 17.6247 19.8771ZM10.8747 19.8771C9.83898 19.8771 8.99973 20.7163 8.99973 21.7521C8.99973 22.7878 9.83898 23.6271 10.8747 23.6271C11.9105 23.6271 12.7497 22.7878 12.7497 21.7521C12.7497 20.7163 11.9105 19.8771 10.8747 19.8771Z"/>
</symbol>
<symbol id="chevron" viewBox="0 0 8 12">
 <path d="M7.41016 1.87134L2.83016 6.00234L7.41016 10.1333L6.00016 11.4023L0.000156403 6.00234L6.00016 0.602344L7.41016 1.87134Z"/>
</symbol>
<symbol id="chevronCategory" viewBox="0 0 8 12">
 <path d="M7.41016 1.41L2.83016 6L7.41016 10.59L6.00016 12L0.000156403 6L6.00016 0L7.41016 1.41Z"/>
</symbol>
</defs>
</svg>
